<svg id="Layer_1" data-name="Layer 1" xmlns="http://www.w3.org/2000/svg" viewBox="0 0 200 200"><defs><style>.cls-1{fill:#161616;}</style></defs><title>Artboard 1</title><path class="cls-1" d="M13.22,160.12V117.65c0-7.18-1-13-10.08-13V96.51c18.23,0,18.62,12.41,18.62,20.56v43.05c0,9.11,6.2,15.71,13.18,15.71H47v8.34h-12C24.08,184.17,13.22,174.86,13.22,160.12Zm3.88-65a20.57,20.57,0,0,0-7.56-2.91,14.43,14.43,0,0,0,3.68-9.89V39.88c0-14.54,10.86-24.05,21.72-24.05H47v8.34h-12c-7,0-13.18,6.4-13.18,15.71V82.93A16.54,16.54,0,0,1,17.1,95.15Z"/><path class="cls-1" d="M186.78,39.88V82.35c0,7.18,1,13,10.08,13v8.14c-18.23,0-18.62-12.41-18.62-20.56V39.88c0-9.11-6.2-15.71-13.18-15.71H153V15.83h12C175.92,15.83,186.78,25.14,186.78,39.88Zm-3.88,65a20.57,20.57,0,0,0,7.56,2.91,14.43,14.43,0,0,0-3.68,9.89v42.47c0,14.54-10.86,24-21.72,24H153v-8.34h12c7,0,13.18-6.4,13.18-15.71V117.07A16.54,16.54,0,0,1,182.9,104.85Z"/><polygon class="cls-1" points="100.66 73.32 121.29 73.32 121.29 138.32 136.04 138.32 136.04 73.32 156.01 73.32 157.56 61.68 100.66 61.68 100.66 73.32"/><path class="cls-1" d="M62.87,126.34H93.6v12H48.23V61.68H62.87Z"/></svg>